<svg id="Capa_1" enable-background="new 0 0 512 512" height="512" viewBox="0 0 512 512" width="512" xmlns="http://www.w3.org/2000/svg"><g><path d="m292.354 256c-.004-.328 0-.656.002-.984.472-16.042 7.808-31.582 5.786-45.695-2.473-17.255-15.722-31.748-19.85-46.391-4.833-17.143-1.107-34.957-7.549-48.804-7.807-16.781-25.499-27.682-34.507-40.113-11.739-16.2-16.019-33.853-27.312-43.723l-23.59-18.813c-19.182-15.297-48.724-15.297-67.906 0l-23.589 18.813c-11.293 9.87-15.573 27.523-27.312 43.723-9.008 12.431-26.7 23.332-34.507 40.113-6.441 13.846-2.715 31.66-7.549 48.804-4.129 14.643-17.378 29.137-19.851 46.391-2.022 14.114 5.314 29.653 5.786 45.695.002.328.006.656.002.984.004.328 0 .656-.002.984-.472 16.042-7.808 31.582-5.786 45.695 2.473 17.254 15.722 31.748 19.851 46.391 4.833 17.143 1.107 34.957 7.549 48.803 7.807 16.781 25.499 27.682 34.507 40.114 11.739 16.2 16.019 33.853 27.312 43.723l23.59 18.813c19.182 15.297 48.724 15.297 67.906 0l23.59-18.813c11.293-9.87 15.573-27.523 27.312-43.723 9.008-12.431 26.7-23.332 34.507-40.114 6.441-13.846 2.715-31.66 7.549-48.803 4.129-14.643 17.378-29.137 19.85-46.391 2.022-14.114-5.314-29.653-5.786-45.695-.003-.328-.007-.656-.003-.984z" fill="#d9b3a6"/><path d="m292.352 256.979c.474 16.048 7.813 31.591 5.793 45.702-2.474 17.254-15.729 31.746-19.852 46.393-4.834 17.141-1.113 34.952-7.555 48.805-7.802 16.78-25.49 27.675-34.498 40.105-11.74 16.203-16.017 33.859-27.314 43.723l-23.593 18.821c-12.193 9.73-28.582 13.265-43.836 10.627 8.73-1.515 17.089-5.061 24.078-10.627l23.583-18.821c11.297-9.864 15.574-27.52 27.314-43.723 9.008-12.431 26.706-23.325 34.508-40.105 6.442-13.853 2.711-31.664 7.545-48.805 4.133-14.647 17.378-29.138 19.852-46.393 2.03-14.111-5.308-29.654-5.782-45.702 0-.32-.01-.649 0-.979-.01-.33 0-.66 0-.979.474-16.048 7.813-31.592 5.782-45.702-2.474-17.254-15.718-31.746-19.852-46.393-4.834-17.141-1.103-34.952-7.545-48.805-7.803-16.78-25.5-27.675-34.508-40.105-11.74-16.203-16.017-33.859-27.314-43.723l-23.583-18.821c-6.988-5.566-15.347-9.112-24.078-10.627 15.255-2.639 31.643.897 43.836 10.627l23.593 18.821c11.297 9.864 15.574 27.52 27.314 43.723 9.008 12.43 26.696 23.325 34.498 40.105 6.442 13.853 2.721 31.664 7.555 48.805 4.123 14.646 17.378 29.138 19.852 46.393 2.02 14.111-5.318 29.654-5.793 45.702z" fill="#d1a08f"/><g><path d="m90.458 217.299c-2.098 0-4.188-.849-5.714-2.521-16.692-18.305-17.462-48.757-1.716-67.882 2.713-3.296 7.586-3.768 10.881-1.054 3.296 2.714 3.769 7.585 1.055 10.881-10.863 13.194-10.311 35.009 1.205 47.637 2.877 3.155 2.651 8.044-.503 10.921-1.483 1.351-3.349 2.018-5.208 2.018z" fill="#d1a08f"/></g><g><g><path d="m156.912 115.072c-2.098 0-4.188-.849-5.714-2.521-16.692-18.305-17.462-48.757-1.716-67.882 2.713-3.297 7.584-3.768 10.882-1.054 3.295 2.714 3.768 7.585 1.054 10.881-10.863 13.194-10.311 35.009 1.205 47.637 2.877 3.155 2.651 8.044-.503 10.921-1.483 1.352-3.349 2.018-5.208 2.018z" fill="#d1a08f"/></g><g><path d="m156.912 461.904c-2.098 0-4.188-.849-5.714-2.521-16.692-18.305-17.462-48.757-1.716-67.882 2.713-3.297 7.584-3.767 10.882-1.054 3.295 2.714 3.768 7.585 1.054 10.881-10.863 13.194-10.311 35.009 1.205 47.637 2.877 3.155 2.651 8.044-.503 10.921-1.483 1.351-3.349 2.018-5.208 2.018z" fill="#d1a08f"/></g></g><g><path d="m72.163 329.478c-2.098 0-4.188-.849-5.714-2.521-13.978-15.328-14.622-40.829-1.436-56.845 2.713-3.296 7.585-3.768 10.881-1.054s3.769 7.585 1.055 10.881c-8.346 10.137-7.923 26.898.925 36.6 2.877 3.155 2.651 8.044-.503 10.921-1.484 1.352-3.349 2.018-5.208 2.018z" fill="#d1a08f"/></g><g><path d="m176.066 239.471c-2.098 0-4.188-.849-5.714-2.521-11.105-12.177-11.617-32.435-1.141-45.158 2.715-3.296 7.586-3.768 10.882-1.054 3.295 2.714 3.768 7.586 1.054 10.881-5.681 6.9-5.393 18.309.63 24.913 2.877 3.155 2.651 8.044-.503 10.921-1.483 1.351-3.348 2.018-5.208 2.018z" fill="#d1a08f"/></g><path d="m491.292 288.123c.071-.32.149-.639.226-.958 4.115-15.513 14.799-28.972 16.046-43.175 1.524-17.364-8.074-34.495-8.757-49.694-.8-17.794 6.888-34.29 3.771-49.24-3.777-18.118-18.52-32.764-24.458-46.921-7.739-18.449-7.883-36.612-16.63-48.796l-18.682-23.693c-15.191-19.266-43.957-25.998-66.12-15.474l-27.256 12.942c-13.245 7.037-21.435 23.25-36.556 36.349-11.604 10.051-31.314 16.634-42.739 31.195-9.427 12.014-9.858 30.208-18.471 45.8-7.357 13.317-23.56 24.41-29.899 40.648-5.185 13.281-1.583 30.084-4.779 45.812-.072.32-.144.64-.222.958-.071.32-.149.639-.226.958-4.115 15.513-14.799 28.972-16.046 43.175-1.524 17.364 8.074 34.495 8.757 49.694.8 17.794-6.888 34.29-3.771 49.24 3.777 18.118 18.52 32.764 24.458 46.921 7.739 18.448 7.883 36.612 16.63 48.796l18.682 23.693c15.191 19.266 43.957 25.998 66.12 15.474l27.256-12.942c13.245-7.037 21.435-23.25 36.556-36.349 11.604-10.052 31.314-16.635 42.74-31.195 9.427-12.014 9.858-30.208 18.471-45.799 7.357-13.317 23.56-24.411 29.899-40.648 5.185-13.281 1.583-30.084 4.779-45.812.071-.32.143-.641.221-.959z" fill="#b98080"/><path d="m507.566 243.992c-1.247 14.203-11.936 27.665-16.048 43.177-.072.32-.155.639-.227.959-.082.309-.144.639-.216.959-3.206 15.718.402 32.529-4.783 45.805-6.339 16.244-22.542 27.335-29.901 40.652-8.617 15.584-9.039 33.787-18.471 45.795-11.42 14.564-31.138 21.15-42.744 31.2-15.121 13.1-23.305 29.314-36.549 36.343l-27.263 12.946c-13.379 6.359-29.169 6.421-42.929 1.227 7.287-.185 14.502-1.783 21.14-4.937l27.252-12.935c13.245-7.04 21.439-23.253 36.56-36.353 11.606-10.049 31.313-16.636 42.744-31.2 9.421-12.008 9.854-30.2 18.471-45.795 7.349-13.317 23.562-24.407 29.901-40.652 5.184-13.276 1.577-30.076 4.772-45.805.072-.32.144-.639.227-.959.072-.32.144-.639.227-.959 4.113-15.512 14.801-28.974 16.048-43.177 1.515-17.368-8.081-34.498-8.761-49.691-.804-17.801 6.885-34.292 3.772-49.248-3.783-18.11-18.522-32.756-24.459-46.918-7.741-18.45-7.885-36.611-16.636-48.794l-18.677-23.696c-6.019-7.627-14.162-13.296-23.191-16.698 17.027-.433 34.333 6.916 44.981 20.408l18.687 23.696c8.741 12.183 8.885 30.344 16.625 48.794 5.937 14.162 20.687 28.809 24.459 46.918 3.113 14.956-4.566 31.447-3.772 49.248.681 15.192 10.287 32.322 8.761 49.69z" fill="#ae6c6c"/><g><path d="m305.292 204.639c-2.711 0-5.34-1.428-6.756-3.962-12.082-21.628-5.891-51.454 13.799-66.487 3.392-2.591 8.245-1.94 10.835 1.453 2.591 3.394 1.941 8.245-1.453 10.836-13.583 10.371-18.017 31.737-9.682 46.658 2.082 3.727.748 8.437-2.979 10.519-1.194.667-2.487.983-3.764.983z" fill="#ae6c6c"/></g><g><path d="m426.625 310.38c-2.71 0-5.34-1.428-6.756-3.961-12.082-21.627-5.892-51.453 13.797-66.487 3.395-2.592 8.244-1.94 10.836 1.452 2.591 3.394 1.941 8.245-1.452 10.836-13.584 10.372-18.017 31.739-9.682 46.658 2.082 3.727.749 8.437-2.978 10.519-1.195.666-2.488.983-3.765.983z" fill="#ae6c6c"/></g><g><g><path d="m393.293 120.245c-2.71 0-5.34-1.428-6.756-3.961-12.082-21.627-5.892-51.453 13.797-66.487 3.395-2.592 8.245-1.94 10.836 1.452 2.591 3.394 1.941 8.245-1.452 10.836-13.584 10.372-18.017 31.739-9.682 46.658 2.082 3.727.749 8.437-2.978 10.519-1.195.666-2.489.983-3.765.983z" fill="#ae6c6c"/></g><g><path d="m314.261 457.951c-2.71 0-5.34-1.428-6.756-3.961-12.082-21.627-5.892-51.453 13.797-66.487 3.395-2.592 8.244-1.94 10.836 1.452 2.591 3.394 1.941 8.245-1.452 10.836-13.584 10.372-18.017 31.739-9.682 46.658 2.082 3.727.749 8.437-2.978 10.519-1.195.667-2.489.983-3.765.983z" fill="#ae6c6c"/></g></g><g><path d="m261.917 309.698c-2.711 0-5.34-1.427-6.756-3.962-10.117-18.11-4.934-43.086 11.553-55.676 3.395-2.592 8.244-1.94 10.836 1.452 2.591 3.394 1.941 8.245-1.452 10.836-10.436 7.968-13.842 24.385-7.439 35.848 2.082 3.727.748 8.436-2.978 10.519-1.195.666-2.488.983-3.764.983z" fill="#ae6c6c"/></g><g><path d="m383.596 245.736c-2.71 0-5.34-1.428-6.756-3.962-8.037-14.387-3.92-34.229 9.179-44.23 3.394-2.592 8.244-1.941 10.836 1.453 2.591 3.393 1.941 8.244-1.452 10.835-7.104 5.424-9.423 16.599-5.064 24.402 2.082 3.727.749 8.436-2.978 10.519-1.196.666-2.489.983-3.765.983z" fill="#ae6c6c"/></g></g></svg>